<svg viewBox="0 0 300 145" xmlns="http://www.w3.org/2000/svg"><rect fill="#c4f4f1" height="145" rx="5" width="300"/><text fill="#22211a" font-family="monospace" font-size=".6em" x="15" y="15">ls</text><text fill="#0088db" font-family="monospace" font-size=".6em" x="15" y="30">dir</text><text fill="#d0392b" font-family="monospace" font-size=".6em" x="65" y="30">executable</text><text fill="#22211a" font-family="monospace" font-size=".6em" x="175" y="30">file</text><path d="m0 40h300" stroke="#22211a" stroke-width=".2"/><g font-family="monospace" font-size=".6em"><text fill="#22211a" x="15" y="55">bash ~/colors.sh</text><text fill="#22211a" x="15" y="70">normal:</text><text fill="#22211a" x="55" y="70">black</text><text fill="#d0392b" x="85" y="70">red</text><text fill="#076706" x="105" y="70">green</text><text fill="#d88900" x="135" y="70">yellow</text><text fill="#0088db" x="170" y="70">blue</text><text fill="#c5218e" x="195" y="70">magenta</text><text fill="#1f4e45" x="235" y="70">cyan</text><text fill="#f1f1f1" x="260" y="70">white</text><text fill="#22211a" x="15" y="85">bright:</text><text fill="#8e8e8e" x="55" y="85">black</text><text fill="#ffc4bd" x="85" y="85">red</text><text fill="#d6fcb9" x="105" y="85">green</text><text fill="#fefdd5" x="135" y="85">yellow</text><text fill="#c1e3fe" x="170" y="85">blue</text><text fill="#ffb1fe" x="195" y="85">magenta</text><text fill="#e5e6fe" x="235" y="85">cyan</text><text fill="#feffff" x="260" y="85">white</text></g><path d="m0 95h300" stroke="#22211a" stroke-width=".2"/><text fill="#c5218e" font-family="monospace" font-size=".6em" x="15" y="110">~/project</text><text fill="#076706" font-family="monospace" font-size=".6em" x="65" y="110">git(</text><text fill="#d88900" font-family="monospace" font-size=".6em" x="85" y="110">main</text><text fill="#076706" font-family="monospace" font-size=".6em" x="113" y="110">)</text><path d="m15 120v10" stroke="#d83e1c" stroke-width="2"/></svg>